<mxfile host="65bd71144e" modified="2021-02-03T19:26:26.547Z" agent="5.0 (X11; Linux x86_64) AppleWebKit/537.36 (KHTML, like Gecko) Code/1.51.1 Chrome/83.0.4103.122 Electron/9.3.3 Safari/537.36" etag="XqrqhqS0qcvRA65nvcvX" version="13.10.0" type="embed">
    <diagram id="1XTyoEW7qzfLBBSgb7DO" name="Page-1">
        <mxGraphModel dx="614" dy="359" grid="1" gridSize="10" guides="1" tooltips="1" connect="1" arrows="1" fold="1" page="1" pageScale="1" pageWidth="850" pageHeight="1100" math="0" shadow="0">
            <root>
                <mxCell id="0"/>
                <mxCell id="1" parent="0"/>
                <mxCell id="5" value="Room1" style="rounded=0;whiteSpace=wrap;html=1;fillColor=#0050ef;strokeColor=#001DBC;fontColor=#ffffff;" parent="1" vertex="1">
                    <mxGeometry x="180" y="248" width="120" height="70" as="geometry"/>
                </mxCell>
                <mxCell id="6" value="Room2" style="rounded=0;whiteSpace=wrap;html=1;fillColor=#6a00ff;strokeColor=#3700CC;fontColor=#ffffff;" parent="1" vertex="1">
                    <mxGeometry x="180" y="164" width="120" height="80" as="geometry"/>
                </mxCell>
                <mxCell id="7" value="Room3" style="rounded=0;whiteSpace=wrap;html=1;fillColor=#1ba1e2;strokeColor=#006EAF;fontColor=#ffffff;" parent="1" vertex="1">
                    <mxGeometry x="180" y="81" width="120" height="80" as="geometry"/>
                </mxCell>
                <object label="robot" movable="true" speed="5" type="robot" id="15">
                    <mxCell style="ellipse;whiteSpace=wrap;html=1;aspect=fixed;" parent="1" vertex="1">
                        <mxGeometry x="475" y="280" width="30" height="30" as="geometry"/>
                    </mxCell>
                </object>
                <object label="" type="path" id="33">
                    <mxCell style="endArrow=classic;html=1;exitX=0;exitY=0.5;exitDx=0;exitDy=0;entryX=1;entryY=0.5;entryDx=0;entryDy=0;" parent="1" source="15" target="7" edge="1">
                        <mxGeometry width="50" height="50" relative="1" as="geometry">
                            <mxPoint x="290" y="210" as="sourcePoint"/>
                            <mxPoint x="340" y="160" as="targetPoint"/>
                            <Array as="points">
                                <mxPoint x="475" y="121"/>
                            </Array>
                        </mxGeometry>
                    </mxCell>
                </object>
                <mxCell id="34" value="" style="rounded=0;whiteSpace=wrap;html=1;fillColor=#60a917;strokeColor=#2D7600;fontColor=#ffffff;" vertex="1" parent="1">
                    <mxGeometry x="340" y="160" width="20" height="10" as="geometry"/>
                </mxCell>
            </root>
        </mxGraphModel>
    </diagram>
</mxfile>